<svg width="70" height="70" viewBox="0 0 70 70" fill="none" xmlns="http://www.w3.org/2000/svg"><path d="M42.533 35H43.8a2.87 2.87 0 002.866-2.866v-3.6a2.87 2.87 0 00-2.866-2.867h-1.267a2.87 2.87 0 00-2.867 2.866v3.6A2.87 2.87 0 0042.533 35zm-.534-6.467c0-.294.24-.532.534-.533H43.8a.534.534 0 01.533.533v3.6a.534.534 0 01-.533.534h-1.267a.534.534 0 01-.534-.533v-3.6z" fill="#005ED0"/><path d="M36.167 41.366c.644 0 1.166-.522 1.166-1.166 0-.294.24-.533.533-.534h1.268c.294.001.532.24.532.534v3.6a1.167 1.167 0 002.334 0v-3.6a2.87 2.87 0 00-2.866-2.867h-1.268A2.871 2.871 0 0035 40.2c0 .644.522 1.166 1.167 1.166zm0-6.366c.644 0 1.166-.522 1.166-1.167v-7a1.166 1.166 0 00-2.333 0v7c0 .645.522 1.167 1.167 1.167zm14 0c.644 0 1.166-.522 1.166-1.167v-7a1.167 1.167 0 00-2.333 0v7c0 .645.522 1.167 1.167 1.167zM45.5 37.333c-.643 0-1.166.523-1.166 1.167v4.667a1.167 1.167 0 002.333 0V38.5c0-.644-.522-1.167-1.166-1.167zM50.167 42c.644 0 1.166-.523 1.166-1.166V38.5a1.167 1.167 0 10-2.333 0v2.334c0 .643.522 1.166 1.167 1.166z" fill="#5F5F5F"/><path d="M66.5 0h-63A3.5 3.5 0 000 3.5v63A3.5 3.5 0 003.5 70h63a3.5 3.5 0 003.5-3.5v-63A3.5 3.5 0 0066.5 0zM2.333 3.5c0-.644.523-1.167 1.167-1.167h63c.644 0 1.167.523 1.167 1.167v5.833H2.333V3.5zm65.334 8.167v46.667H2.333V11.667h65.334zm0 54.833c0 .644-.523 1.167-1.167 1.167h-63A1.167 1.167 0 012.333 66.5v-5.833h65.334V66.5z" fill="#5F5F5F"/><path d="M28 33.833a15.146 15.146 0 0025.021 11.506l10.32 10.32a1.167 1.167 0 001.651-1.65l-10.32-10.321A15.16 15.16 0 1028 33.833zM43.167 21C50.254 21 56 26.745 56 33.833s-5.746 12.833-12.833 12.833c-7.088 0-12.833-5.745-12.833-12.833.008-7.084 5.749-12.825 12.833-12.833zM5.833 17.5H31.5a1.167 1.167 0 100-2.333H5.834a1.166 1.166 0 100 2.333zm0 4.666h10.5a1.166 1.166 0 100-2.333h-10.5a1.167 1.167 0 100 2.334zM57.167 17.5h4.666a1.166 1.166 0 100-2.333h-4.666a1.166 1.166 0 100 2.333zm4.666 2.333H59.5a1.167 1.167 0 000 2.334h2.333a1.166 1.166 0 100-2.334z" fill="#5F5F5F"/><path d="M61.833 43.167H59.5a1.166 1.166 0 000 2.333h2.333a1.166 1.166 0 100-2.333zm0-18.667H59.5a1.166 1.166 0 000 2.333h2.333a1.166 1.166 0 100-2.333zm-8.167 28h-2.334a1.166 1.166 0 000 2.333h2.334a1.166 1.166 0 100-2.333zM5.833 26.833h14a1.166 1.166 0 100-2.333h-14a1.167 1.167 0 100 2.333zm0 4.667h2.333a1.167 1.167 0 000-2.333H5.833a1.167 1.167 0 100 2.333zm13.999 4.667h2.334a1.167 1.167 0 100-2.334h-2.334a1.167 1.167 0 000 2.334zm4.668-5.833c0-.645-.523-1.167-1.166-1.167h-8.167a1.167 1.167 0 100 2.333h8.167c.643 0 1.166-.522 1.166-1.166zm-9.334 13.999c0 .645.522 1.167 1.166 1.167H24.5a1.167 1.167 0 100-2.333h-8.167c-.644 0-1.166.523-1.166 1.166zm-9.333-8.166h7a1.167 1.167 0 000-2.334h-7a1.167 1.167 0 100 2.334zm0 4.667h10.5a1.167 1.167 0 100-2.334h-10.5a1.167 1.167 0 100 2.334zm0 4.666h5.833a1.167 1.167 0 100-2.333H5.833a1.167 1.167 0 100 2.333zm0 4.667h24.5a1.167 1.167 0 000-2.333h-24.5a1.166 1.166 0 100 2.333zm9.333 2.333H5.833a1.167 1.167 0 100 2.333h9.333a1.166 1.166 0 100-2.333zm28.002 0H28a1.167 1.167 0 000 2.333h15.167a1.166 1.166 0 100-2.333zM7 5.834a1.167 1.167 0 11-2.334-.001 1.167 1.167 0 012.333.001zm4.667 0a1.167 1.167 0 11-2.333 0 1.167 1.167 0 012.333 0zm4.666 0a1.167 1.167 0 11-2.333 0 1.167 1.167 0 012.333 0z" fill="#5F5F5F"/></svg>