<svg width="70" height="70" viewBox="0 0 70 70" fill="none" xmlns="http://www.w3.org/2000/svg"><path d="M43.203 47.305a1.368 1.368 0 10.001 2.735 1.368 1.368 0 000-2.735z" fill="#005ED0"/><path d="M63.164 0H6.836A6.844 6.844 0 000 6.836v41.836a6.844 6.844 0 006.836 6.836h21.328v6.289h-1.367a6.791 6.791 0 00-4.833 2.003 6.792 6.792 0 00-2.003 4.833c0 .755.612 1.367 1.367 1.367h27.344c.755 0 1.367-.612 1.367-1.367a6.844 6.844 0 00-6.836-6.836h-1.367v-6.29h21.328A6.844 6.844 0 0070 48.673V6.836A6.844 6.844 0 0063.164 0zM6.836 2.734h56.328a4.106 4.106 0 014.102 4.102v35h-6.29V10.39c0-.756-.611-1.368-1.367-1.368H48.672c-.755 0-1.367.612-1.367 1.368v31.445H40.46a125.726 125.726 0 00-.11-4.16c-.239-5.569-.784-9.298-1.068-10.939a6.837 6.837 0 001.867-8.917L36.41 9.613a1.368 1.368 0 00-2.368 0l-4.74 8.207c-1.627 2.82-1.05 6.473 1.504 8.628-.296 1.636-.893 5.5-1.153 11.225-.061 1.367-.1 2.762-.115 4.163h-6.844V21.328a1.36 1.36 0 00-.135-.59l-.009-.021-5.469-10.938a1.368 1.368 0 00-2.446 0L9.168 20.717l-.009.021a1.359 1.359 0 00-.136.59v20.508H2.734v-35a4.106 4.106 0 014.102-4.102zm43.203 39.102V11.758h8.203v2.734h-1.367a1.367 1.367 0 100 2.735h1.367v4.101h-1.367a1.367 1.367 0 100 2.735h1.367v4.101h-1.367a1.367 1.367 0 100 2.734h1.367v5.47h-1.367a1.367 1.367 0 100 2.734h1.367v2.734H50.04zM35.227 28.07c.497 0 .991-.058 1.475-.164.254 1.626.627 4.503.847 8.461H32.46c.231-3.955.622-6.877.891-8.559a6.844 6.844 0 001.876.262zm0-2.735c-3.125 0-5.14-3.4-3.556-6.148l3.556-6.157 3.554 6.157c1.578 2.735-.41 6.148-3.554 6.148zm-2.892 13.767h5.334c.03.898.049 1.812.058 2.734h-5.454c.01-.916.031-1.83.061-2.734zm-15.108 2.734v-19.14h2.734v19.14h-2.734zm-5.47 0v-19.14h2.735v19.14h-2.734zm.846-21.875l3.256-6.513 3.257 6.513h-6.513zM47.07 67.266H22.928c.201-.57.529-1.093.969-1.533a4.076 4.076 0 012.9-1.202h16.406a4.108 4.108 0 013.867 2.735zm-7.968-5.47h-8.204v-6.288h8.204v6.289zm24.062-9.023H6.836a4.106 4.106 0 01-4.102-4.101V44.57h64.532v4.102a4.106 4.106 0 01-4.102 4.101z" fill="#5F5F5F"/><path d="M37.734 47.305h-8.203a1.367 1.367 0 100 2.734h8.203a1.367 1.367 0 100-2.734z" fill="#5F5F5F"/></svg>