<svg width="70" height="70" viewBox="0 0 70 70" fill="none" xmlns="http://www.w3.org/2000/svg"><path d="M62.528 55.786a6.263 6.263 0 001.194-3.684v-8.215c0-.755-.612-1.367-1.367-1.367h-6.11a5.128 5.128 0 00-5.123 5.122v4.46c0 1.374.443 2.646 1.193 3.682a8.802 8.802 0 00-2.673.89 11.632 11.632 0 00-8.588-5.12l-.042-.01a8.038 8.038 0 002.06-5.378V35c0-.755-.613-1.367-1.368-1.367H33.4a6.479 6.479 0 00-6.471 6.471v6.062c0 2.064.78 3.95 2.06 5.378l-.043.01a11.632 11.632 0 00-8.589 5.12 8.812 8.812 0 00-2.672-.89 6.264 6.264 0 001.193-3.682v-8.215c0-.755-.612-1.367-1.367-1.367H11.4a5.128 5.128 0 00-5.123 5.122v4.46c0 1.375.444 2.647 1.194 3.684C3.241 56.478 0 60.158 0 64.582v4.05C0 69.389.612 70 1.367 70h67.266c.755 0 1.367-.612 1.367-1.367v-4.05c0-4.425-3.24-8.105-7.472-8.797zM9.012 47.642a2.39 2.39 0 012.389-2.388h4.743v1.665c0 .817-.664 1.48-1.48 1.48H9.011v-.757zm0 3.492h5.651c.521 0 1.02-.096 1.48-.27v1.238a3.57 3.57 0 01-3.565 3.566 3.57 3.57 0 01-3.566-3.566v-.968zm4.448 7.268l-.882.882-.881-.882h1.763zm4.936 4.726v4.138H2.734v-2.684c0-3.066 2.246-5.617 5.178-6.097l3.7 3.699a1.368 1.368 0 001.933 0l3.7-3.7a6.114 6.114 0 011.868.625 11.57 11.57 0 00-.717 4.019zM35 51.503a5.343 5.343 0 01-5.337-5.337v-1.807h8.17c.907 0 1.76-.232 2.504-.638v2.445A5.343 5.343 0 0135 51.503zm2.383 2.734L35 56.62l-2.383-2.383h4.766zm-7.72-14.133a3.741 3.741 0 013.737-3.737h6.937v2.754a2.506 2.506 0 01-2.503 2.504h-8.171v-1.521zM48.87 67.266H21.13V64.53h8.903a1.367 1.367 0 100-2.734H21.23a8.91 8.91 0 017.602-7.478l5.201 5.202c.267.267.617.4.967.4s.7-.133.967-.4l5.201-5.202c4.342.584 7.702 4.31 7.702 8.809v4.138zm4.986-19.624a2.39 2.39 0 012.389-2.388h4.742v1.665c0 .817-.664 1.48-1.48 1.48h-5.65v-.757zm0 3.492h5.651c.52 0 1.02-.096 1.48-.27v1.238a3.57 3.57 0 01-3.565 3.566 3.57 3.57 0 01-3.566-3.566v-.968zm4.447 7.268l-.881.882-.881-.882h1.762zm-6.699 8.864v-4.138a11.57 11.57 0 00-.717-4.02 6.1 6.1 0 011.867-.625l3.701 3.7a1.368 1.368 0 001.934 0l3.698-3.698c2.933.48 5.178 3.031 5.178 6.097v2.684h-15.66z" fill="#5F5F5F"/><path d="M41.738 8.933a1.367 1.367 0 00-1.934 0l-6.709 6.709-2.9-2.9a1.367 1.367 0 10-1.933 1.933l3.867 3.867a1.367 1.367 0 001.933 0l7.676-7.676c.534-.534.534-1.4 0-1.933z" fill="#005ED0"/><path d="M40.59 1.186a1.367 1.367 0 00-1.115 2.497 11.022 11.022 0 016.527 10.054c0 6.067-4.936 11.003-11.003 11.003s-11.003-4.936-11.003-11.003a11.03 11.03 0 016.48-10.033 1.367 1.367 0 00-1.126-2.492 13.769 13.769 0 00-8.088 12.525c0 7.575 6.162 13.738 13.737 13.738s13.737-6.163 13.737-13.738A13.759 13.759 0 0040.59 1.186z" fill="#5F5F5F"/><path d="M35.049 0H35a1.367 1.367 0 000 2.734h.043A1.367 1.367 0 0035.049 0zm.918 62.197a1.377 1.377 0 00-.967-.4c-.36 0-.712.146-.967.4-.254.255-.4.607-.4.967s.146.712.4.967c.255.254.607.4.967.4s.712-.146.967-.4c.254-.255.4-.607.4-.967s-.146-.712-.4-.967z" fill="#5F5F5F"/></svg>