<svg width="70" height="70" viewBox="0 0 70 70" fill="none" xmlns="http://www.w3.org/2000/svg"><path d="M43.203 36.367a1.368 1.368 0 10.001 2.736 1.368 1.368 0 000-2.736zm-16.406-5.469a1.368 1.368 0 100 2.736 1.368 1.368 0 000-2.736z" fill="#005ED0"/><path d="M68.633 30.898a1.367 1.367 0 000-2.734h-7.656v-8.203h7.656a1.367 1.367 0 000-2.734h-8.457l-7.403-7.403V1.367a1.367 1.367 0 00-2.734 0v7.656h-8.203V1.367a1.367 1.367 0 00-2.734 0v7.656h-8.204V1.367a1.367 1.367 0 00-2.734 0v7.656h-8.203V1.367a1.367 1.367 0 00-2.734 0v8.457l-7.403 7.403H1.367a1.367 1.367 0 000 2.734h7.656v8.203H1.367a1.367 1.367 0 000 2.734h7.656v8.204H1.367a1.367 1.367 0 000 2.734h7.656v8.203H1.367a1.367 1.367 0 000 2.734h8.457l7.403 7.403v8.457a1.367 1.367 0 002.734 0v-7.656h8.203v7.656a1.367 1.367 0 002.734 0v-7.656h8.204v7.656a1.367 1.367 0 002.734 0v-7.656h8.203v7.656a1.367 1.367 0 002.734 0v-8.457l7.403-7.403h8.457a1.367 1.367 0 000-2.734h-7.656v-8.203h7.656a1.367 1.367 0 000-2.734h-7.656v-8.204h7.656zM58.243 50.84l-7.403 7.402H19.16l-7.402-7.402V19.16l7.402-7.402h31.68l7.402 7.402v31.68z" fill="#5F5F5F"/><path d="M52.373 21.024l-3.398-3.397a1.368 1.368 0 00-.966-.4H21.99c-.362 0-.71.144-.966.4l-3.398 3.398c-.256.256-.4.604-.4.966V48.01c0 .362.144.71.4.966l3.398 3.398c.256.256.604.4.966.4h26.02c.362 0 .71-.144.966-.4l3.398-3.398c.256-.256.4-.604.4-.966V21.99c0-.362-.144-.71-.4-.966zm-2.334 26.419l-2.596 2.596H22.558l-2.597-2.596V22.558l2.597-2.597h24.885l2.596 2.597v24.885z" fill="#5F5F5F"/><path d="M43.203 25.43H26.797a1.367 1.367 0 000 2.734h15.039v4.102a1.367 1.367 0 002.734 0v-5.47c0-.754-.612-1.366-1.367-1.366zm0 16.406H28.164v-4.102a1.367 1.367 0 00-2.734 0v5.47c0 .754.612 1.366 1.367 1.366h16.406a1.367 1.367 0 000-2.734z" fill="#005ED0"/></svg>