<svg width="70" height="70" viewBox="0 0 70 70" fill="none" xmlns="http://www.w3.org/2000/svg"><path d="M46.286 33.633c.76 0 1.377-.612 1.377-1.367s-.616-1.368-1.377-1.368-1.378.613-1.378 1.368c0 .755.617 1.367 1.378 1.367z" fill="#005ED0"/><path d="M46.522 38.124a1.376 1.376 0 00-1.565 1.152c-.377 2.523-2.526 4.616-5.749 5.598-3.445 1.05-8.227.698-11.144-2.455a1.385 1.385 0 00-1.946-.082 1.36 1.36 0 00-.083 1.932c1.689 1.825 3.982 3.069 6.633 3.597.936.186 1.907.279 2.884.279 1.51 0 3.034-.221 4.465-.657 4.264-1.3 7.13-4.22 7.665-7.811a1.369 1.369 0 00-1.16-1.553z" fill="#5F5F5F"/><path d="M65.67 26.033c-2.504-2.881-5.96-4.749-10.12-5.5 3.983-2.667 7.418-5.321 9.867-7.637 3.735-3.532 4.987-6.014 3.942-7.81-1.164-2-4.523-1.987-10.571.044-5.111 1.716-11.478 4.696-17.927 8.391a140.398 140.398 0 00-3.298 1.95c-.8-2.244-.272-4.808 1.495-7.03 1.323-1.666 1.619-3.781.771-5.521C38.94 1.097 36.99.005 34.61 0h-.065C26.14 0 17.92 3.291 11.397 9.267 4.867 15.25.87 23.17.14 31.569c-.877 10.114 2.381 19.73 9.173 27.076A35.451 35.451 0 0035.266 70c5.288 0 10.251-.96 14.753-2.854a33.21 33.21 0 0010.865-7.349 32.458 32.458 0 006.72-9.977c1.515-3.525 2.342-7.261 2.393-10.803.075-5.152-1.422-9.641-4.327-12.984zm-27.946-7.44a135.479 135.479 0 014.514-2.704c5.964-3.416 11.902-6.23 16.721-7.924 5.305-1.864 7.477-1.743 7.984-1.502-.044.318-.442 1.733-3.923 4.915-2.908 2.657-7.153 5.781-11.954 8.798a135.157 135.157 0 01-11.257 6.338 20.475 20.475 0 00-3.907-6.759c.598-.389 1.206-.777 1.822-1.163zm-.41 9.134c-3.89 1.83-7.46 3.226-10.31 4.036a6.815 6.815 0 00-2.08-3.636c2.134-2.044 5.137-4.412 8.674-6.835a17.837 17.837 0 013.715 6.435zm29.928 11.25c-.196 13.605-12.477 28.289-31.976 28.289a32.68 32.68 0 01-23.922-10.47c-6.265-6.774-9.269-15.65-8.459-24.993C4.277 15.775 18.48 2.734 34.545 2.734h.061c1.318.003 2.318.505 2.742 1.376.391.802.221 1.787-.454 2.637-2.483 3.124-3.105 6.966-1.702 10.205-.739.473-1.465.947-2.166 1.417l-.01.007c-4.38 2.933-8.08 5.851-10.541 8.307a6.898 6.898 0 00-5.661.55c-2.862 1.64-6.62 9.287-7.345 10.803a1.36 1.36 0 00.052 1.27c.226.388.63.642 1.082.678.761.062 2.923.216 5.33.216 2.92 0 6.2-.228 7.77-1.127a6.824 6.824 0 003.285-4.471c3.378-.88 7.793-2.602 12.573-4.913a132.657 132.657 0 008.188-4.328c1.397-.8 2.779-1.626 4.121-2.459l.025.002c11.482.327 15.457 8.517 15.347 16.073zM24.384 33.41a4.093 4.093 0 01-2.06 3.295c-1.302.747-5.778.848-9.453.68 1.691-3.24 4.017-7.036 5.32-7.784a4.146 4.146 0 015.646 1.5c.41.705.599 1.503.547 2.309z" fill="#5F5F5F"/><path d="M24.243 8.455c-3.039 0-5.51 2.453-5.51 5.468 0 3.016 2.471 5.47 5.51 5.47 3.038 0 5.51-2.454 5.51-5.47 0-3.015-2.472-5.468-5.51-5.468zm0 8.203c-1.52 0-2.755-1.227-2.755-2.735 0-1.507 1.236-2.734 2.755-2.734 1.52 0 2.755 1.227 2.755 2.734 0 1.508-1.236 2.735-2.755 2.735zm-6.889 28.534c-3.038 0-5.51 2.454-5.51 5.47 0 3.015 2.472 5.468 5.51 5.468 3.039 0 5.51-2.453 5.51-5.469 0-3.015-2.471-5.469-5.51-5.469zm0 8.203c-1.519 0-2.755-1.226-2.755-2.734s1.236-2.734 2.755-2.734c1.52 0 2.756 1.226 2.756 2.734s-1.236 2.734-2.756 2.734zm13.778 0c-3.039 0-5.51 2.454-5.51 5.47 0 3.015 2.471 5.468 5.51 5.468 3.038 0 5.51-2.453 5.51-5.469 0-3.015-2.472-5.468-5.51-5.468zm0 8.204c-1.52 0-2.756-1.227-2.756-2.735 0-1.508 1.236-2.734 2.756-2.734 1.519 0 2.755 1.226 2.755 2.734S32.65 61.6 31.132 61.6zm16.531-10.938c-3.039 0-5.51 2.453-5.51 5.469 0 3.015 2.471 5.469 5.51 5.469 3.038 0 5.51-2.454 5.51-5.47 0-3.015-2.472-5.468-5.51-5.468zm0 8.203c-1.52 0-2.755-1.226-2.755-2.734s1.236-2.735 2.755-2.735c1.52 0 2.755 1.227 2.755 2.735 0 1.508-1.236 2.734-2.755 2.734zM58.684 36.99c-3.038 0-5.51 2.453-5.51 5.468 0 3.016 2.472 5.469 5.51 5.469 3.039 0 5.51-2.453 5.51-5.469 0-3.015-2.471-5.469-5.51-5.469zm0 8.202c-1.519 0-2.755-1.226-2.755-2.734s1.236-2.734 2.755-2.734c1.52 0 2.756 1.226 2.756 2.734s-1.236 2.734-2.756 2.734z" fill="#5F5F5F"/></svg>