<svg width="70" height="70" viewBox="0 0 70 70" fill="none" xmlns="http://www.w3.org/2000/svg"><path d="M63 14H47.833A6.982 6.982 0 0045.5 8.796v-4.13a4.666 4.666 0 10-9.333 0v4.13A6.98 6.98 0 0033.833 14H14v-2.334a7 7 0 10-14 0V63a7.007 7.007 0 007 7h56a7.007 7.007 0 007-7V21a7.007 7.007 0 00-7-7zm-5.716 33.6L51.35 34.868l-6.935-14.865a7.059 7.059 0 001.834-1.57L58 43.633a3.499 3.499 0 01-.714 3.967h-.003zm-32.9 0a3.5 3.5 0 01-.713-3.972l11.747-25.195a7.057 7.057 0 001.834 1.574l-6.93 14.852L24.384 47.6zm15.05-26.74c.927.19 1.883.19 2.811 0l6.456 13.842a21.794 21.794 0 01-15.724 0l6.456-13.842zM38.5 4.667a2.333 2.333 0 114.667 0v2.741a6.867 6.867 0 00-4.667 0V4.667zm2.334 4.666a4.666 4.666 0 110 9.333 4.666 4.666 0 010-9.333zM7 7a4.667 4.667 0 014.666 4.666V53.13a6.958 6.958 0 00-9.333 0V11.666A4.667 4.667 0 017 7zm60.667 56A4.666 4.666 0 0163 67.667H7A4.666 4.666 0 012.333 63v-4.666a4.666 4.666 0 119.333 0 1.167 1.167 0 002.334 0v-42h19.82L21.554 42.635a5.822 5.822 0 001.807 7.15l-1.035 2.217a1.166 1.166 0 102.115.985l2.465-5.286 5.077-10.887a24.106 24.106 0 0017.7 0l5.078 10.887 2.465 5.286a1.165 1.165 0 002.036.2c.24-.35.27-.805.078-1.185l-1.035-2.217a5.822 5.822 0 001.809-7.148L47.846 16.333H63A4.667 4.667 0 0167.667 21v42z" fill="#5F5F5F"/><path d="M40.18 14.969a.916.916 0 00.212.104.739.739 0 00.21.07 1.7 1.7 0 00.233.024 1.37 1.37 0 00.22-.024.7.7 0 00.223-.07.663.663 0 00.198-.104c.067-.041.13-.088.187-.14a1.166 1.166 0 10-1.656 0c.055.05.113.096.173.14z" fill="#5F5F5F"/><path d="M54.743 57.887a1.176 1.176 0 00-.254-.38l-3.5-3.5a1.167 1.167 0 00-1.65 1.65l1.51 1.51H30.815l1.509-1.509a1.167 1.167 0 00-1.65-1.65l-3.5 3.5a1.138 1.138 0 00-.274.467c-.03.093-.05.19-.057.29 0 .04-.007.078 0 .116.004.126.028.25.072.369 0 .01 0 .02.007.03.057.127.136.243.233.343.01.01.013.024.024.035l3.5 3.5a1.166 1.166 0 001.65-1.65L30.815 59.5H50.85l-1.508 1.508a1.167 1.167 0 101.65 1.65l3.5-3.5a1.17 1.17 0 00.253-1.272l-.001.001z" fill="#005ED0"/><path d="M17.5 24.5c.645 0 1.168-.522 1.168-1.166V21H21a1.167 1.167 0 000-2.333h-3.5c-.644 0-1.167.522-1.167 1.166v3.5c0 .645.523 1.167 1.167 1.167zm46.667-5.833h-3.5a1.167 1.167 0 100 2.333H63v2.334a1.167 1.167 0 002.334 0v-3.5c0-.645-.523-1.167-1.167-1.167zM21.001 63h-2.333v-2.333a1.167 1.167 0 00-2.334 0v3.5c0 .644.523 1.166 1.167 1.166H21A1.167 1.167 0 0021 63zm43.166-3.5c-.645 0-1.167.522-1.167 1.167V63h-2.333a1.167 1.167 0 100 2.334h3.5c.644 0 1.166-.523 1.166-1.167v-3.5c0-.645-.522-1.167-1.166-1.167z" fill="#5F5F5F"/></svg>