<svg width="58" height="70" viewBox="0 0 58 70" fill="none" xmlns="http://www.w3.org/2000/svg"><path d="M29 5.47a1.37 1.37 0 00-1.379 1.366c0 .704.535 1.29 1.242 1.359.818.08 1.517-.55 1.517-1.359A1.37 1.37 0 0029 5.47z" fill="#5F5F5F"/><path d="M56.619 8.203c-3.807 0-6.905-3.066-6.905-6.836 0-.755-.618-1.367-1.38-1.367H9.666c-.763 0-1.381.612-1.381 1.367 0 3.77-3.098 6.836-6.905 6.836C.618 8.203 0 8.815 0 9.57v22.311C0 49.27 11.447 64.85 28.603 69.942a1.397 1.397 0 00.794 0C46.18 64.958 58 49.65 58 31.882V9.57c0-.755-.618-1.367-1.381-1.367zm-1.38 23.678c0 16.331-10.527 30.474-26.239 35.322-15.587-4.81-26.238-19.08-26.238-35.322v-21.04c4.227-.602 7.58-3.922 8.187-8.107h36.102c.607 4.185 3.96 7.505 8.187 8.106v21.041z" fill="#5F5F5F"/><path d="M51.649 12.645a12.378 12.378 0 01-6.422-6.358 1.381 1.381 0 00-1.265-.818h-9.441c-.763 0-1.381.612-1.381 1.367s.618 1.367 1.38 1.367h8.57a15.106 15.106 0 006.624 6.559v17.12c0 13.38-8.113 24.924-20.714 29.545C16.398 56.806 8.285 45.26 8.285 31.88V14.76a15.107 15.107 0 006.625-6.558h8.569c.762 0 1.38-.612 1.38-1.367s-.618-1.367-1.38-1.367h-9.442c-.549 0-1.045.321-1.265.818a12.378 12.378 0 01-6.422 6.358c-.502.218-.827.71-.827 1.253V31.88c0 14.658 9.158 27.434 23.016 32.289a1.393 1.393 0 00.921 0c13.847-4.85 23.016-17.619 23.016-32.289V13.898c0-.544-.325-1.035-.827-1.253z" fill="#5F5F5F"/><path d="M29 19.96c-6.852 0-12.428 5.52-12.428 12.306 0 6.784 5.576 12.304 12.429 12.304 6.853 0 12.428-5.52 12.428-12.304 0-6.785-5.575-12.305-12.428-12.305zm0 21.876c-5.33 0-9.666-4.293-9.666-9.57s4.337-9.57 9.667-9.57 9.666 4.293 9.666 9.57-4.336 9.57-9.666 9.57z" fill="#5F5F5F"/><path d="M35.5 28.564a1.391 1.391 0 00-1.952 0l-5.929 5.87-1.785-1.768a1.391 1.391 0 00-1.953 0c-.54.534-.54 1.4 0 1.934l2.762 2.734c.27.267.623.4.976.4.354 0 .707-.133.977-.4l6.905-6.836c.539-.534.539-1.4 0-1.934z" fill="#005ED0"/></svg>