<svg width="70" height="70" viewBox="0 0 70 70" fill="none" xmlns="http://www.w3.org/2000/svg"><path d="M38.054 62.754h-6.038a1.367 1.367 0 000 2.735h6.038a1.367 1.367 0 000-2.735zm11.038-52.456a1.377 1.377 0 00-.967-.4c-.36 0-.712.146-.967.4-.254.255-.4.607-.4.967s.146.712.4.966c.255.256.607.401.967.401a1.37 1.37 0 001.367-1.367c0-.36-.146-.711-.4-.967z" fill="#5F5F5F"/><path d="M68.633 21.053c.755 0 1.367-.612 1.367-1.367v-8.421c0-.534-.307-.995-.753-1.22l-.02-.011L48.72.136a1.367 1.367 0 00-1.188 0l-20.508 9.898a1.367 1.367 0 000 2.462l7.993 3.858v8.456c0 .064.005.127.014.19h-.38a4.561 4.561 0 00-4.556 4.555 4.561 4.561 0 004.556 4.556h.442a13.118 13.118 0 005.574 9.367H27.93c-.8 0-1.557.191-2.227.529V23.83c0-1.228.999-2.226 2.227-2.226h3.531a1.367 1.367 0 000-2.735H27.93a4.946 4.946 0 00-3.594 1.546 4.946 4.946 0 00-3.593-1.546H1.367A1.368 1.368 0 000 20.236V50.18c0 .755.612 1.367 1.367 1.367h1.64v6.695h-1.64C.612 58.242 0 58.854 0 59.61v2.461C0 66.443 3.557 70 7.93 70h54.14c4.373 0 7.93-3.557 7.93-7.93v-2.46c0-.756-.612-1.368-1.367-1.368h-1.641V38.145a1.367 1.367 0 00-2.735 0v20.097H5.742v-6.695h41.563c.755 0 1.367-.612 1.367-1.367v-4.378c6.505-.269 11.802-5.3 12.487-11.69h.441a4.561 4.561 0 004.556-4.557A4.561 4.561 0 0061.6 25h-.38c.01-.063.014-.126.014-.19v-8.456l6.032-2.911v6.243c0 .755.612 1.367 1.367 1.367zM35.016 31.377h-.366a1.824 1.824 0 01-1.822-1.821c0-1.005.817-1.822 1.822-1.822h.366v3.643zM2.734 21.604h18.009c1.227 0 2.226.998 2.226 2.226v20.177a4.93 4.93 0 00-2.226-.529H2.734V21.603zm64.532 39.373v1.093a5.201 5.201 0 01-5.196 5.196H7.93a5.201 5.201 0 01-5.196-5.196v-1.093h64.532zM2.734 48.812v-2.6h18.009c1.227 0 2.226 1 2.226 2.227 0 .13.019.255.053.373H2.734zm58.5-21.078h.366c1.005 0 1.822.817 1.822 1.821a1.824 1.824 0 01-1.822 1.822h-.366v-3.643zM45.937 48.813H25.65a1.36 1.36 0 00.053-.374 2.23 2.23 0 012.226-2.226h18.009v2.6zM58.5 32.705c0 5.72-4.654 10.375-10.375 10.375-5.72 0-10.375-4.654-10.375-10.375v-5.8l9.824 4.322a1.368 1.368 0 001.101 0l9.825-4.322v5.8zm0-8.787l-10.375 4.564-10.375-4.564v-6.245l9.78 4.72a1.367 1.367 0 001.19 0l9.78-4.72v6.245zm-6.53-11.286h10.684l-14.529 7.013-17.362-8.38 17.362-8.38 14.53 7.013H51.97a1.367 1.367 0 000 2.734z" fill="#5F5F5F"/><path d="M69.6 24.818a1.377 1.377 0 00-.967-.4c-.36 0-.712.146-.967.4-.254.254-.4.607-.4.967s.146.712.4.966A1.371 1.371 0 0070 25.785c0-.36-.146-.712-.4-.967z" fill="#5F5F5F"/><path d="M18.305 34.854a1.38 1.38 0 00-.967-.4c-.36 0-.712.146-.967.4-.255.256-.4.607-.4.967a1.372 1.372 0 001.367 1.367 1.372 1.372 0 001.367-1.367c0-.36-.146-.712-.4-.967zm-6.137-.398H7.793a1.367 1.367 0 000 2.734h4.375a1.367 1.367 0 000-2.734zm5.169-6.563H7.793a1.367 1.367 0 000 2.734h9.544a1.367 1.367 0 000-2.734z" fill="#005ED0"/></svg>