<svg width="70" height="70" viewBox="0 0 70 70" fill="none" xmlns="http://www.w3.org/2000/svg">
<path d="M42.5327 35.0001H43.8C45.3819 34.998 46.6643 33.716 46.666 32.1338V28.5333C46.6643 26.9508 45.3819 25.6687 43.8 25.667H42.5327C40.9505 25.6687 39.6684 26.9508 39.666 28.5333V32.1338C39.6684 33.716 40.9505 34.998 42.5327 35.0001ZM41.9995 28.5333C41.9998 28.239 42.2387 28.0011 42.5327 28.0001H43.8C44.094 28.0011 44.3322 28.239 44.3326 28.5333V32.1338C44.3322 32.4277 44.094 32.6667 43.8 32.667H42.5327C42.2387 32.6667 41.9998 32.4277 41.9995 32.1338V28.5333Z" fill="#005ED0"/>
<path d="M36.1669 41.3662C36.8112 41.3662 37.3331 40.8443 37.3331 40.1996C37.3338 39.9057 37.5724 39.6671 37.8663 39.6664H39.1337C39.428 39.6671 39.6659 39.9057 39.6665 40.1996V43.8005C39.6665 44.4441 40.1888 44.9667 40.8338 44.9667C41.4774 44.9667 42 44.4441 42 43.8005V40.1996C41.9983 38.6178 40.7162 37.3354 39.1337 37.333H37.8663C36.2845 37.3354 35.0021 38.6178 35 40.1996C35 40.8443 35.5223 41.3662 36.1669 41.3662Z" fill="#5F5F5F"/>
<path d="M36.1669 35.0001C36.8112 35.0001 37.3331 34.4782 37.3331 33.8332V26.8332C37.3331 26.1896 36.8112 25.667 36.1669 25.667C35.5223 25.667 35 26.1896 35 26.8332V33.8332C35 34.4782 35.5223 35.0001 36.1669 35.0001Z" fill="#5F5F5F"/>
<path d="M50.1669 35.0001C50.8108 35.0001 51.3331 34.4782 51.3331 33.8332V26.8332C51.3331 26.1896 50.8108 25.667 50.1669 25.667C49.5223 25.667 49 26.1896 49 26.8332V33.8332C49 34.4782 49.5223 35.0001 50.1669 35.0001Z" fill="#5F5F5F"/>
<path d="M45.5009 37.333C44.8566 37.333 44.334 37.8556 44.334 38.4999V43.1668C44.334 43.8107 44.8566 44.333 45.5009 44.333C46.1452 44.333 46.6674 43.8107 46.6674 43.1668V38.4999C46.6674 37.8556 46.1452 37.333 45.5009 37.333Z" fill="#5F5F5F"/>
<path d="M50.1669 41.9998C50.8108 41.9998 51.3331 41.4772 51.3331 40.8336V38.4999C51.3331 37.8556 50.8108 37.333 50.1669 37.333C49.5223 37.333 49 37.8556 49 38.4999V40.8336C49 41.4772 49.5223 41.9998 50.1669 41.9998Z" fill="#5F5F5F"/>
<path d="M66.5 0H3.5C1.56714 0 0 1.56714 0 3.5V66.5C0 68.4329 1.56714 70 3.5 70H66.5C68.4329 70 70 68.4329 70 66.5V3.5C70 1.56714 68.4329 0 66.5 0ZM2.33311 3.5C2.33311 2.85571 2.85571 2.33311 3.5 2.33311H66.5C67.1443 2.33311 67.6669 2.85571 67.6669 3.5V9.33311H2.33311V3.5ZM67.6669 11.6666V58.3338H2.33311V11.6666H67.6669ZM67.6669 66.5C67.6669 67.1443 67.1443 67.6669 66.5 67.6669H3.5C2.85571 67.6669 2.33311 67.1443 2.33311 66.5V60.6669H67.6669V66.5Z" fill="#5F5F5F"/>
<path d="M28 33.833C27.9925 39.756 31.4371 45.1406 36.8194 47.6149C42.2 50.0898 48.5304 49.2008 53.0212 45.3389L63.3418 55.6581C63.7998 56.1 64.5275 56.0938 64.9773 55.644C65.4278 55.1936 65.4336 54.4662 64.992 54.0085L54.6725 43.688C59.043 38.5863 59.5345 31.2165 55.8804 25.5793C52.2266 19.942 45.2977 17.3823 38.8565 19.2895C32.4147 21.1961 27.9966 27.115 28 33.833ZM43.1669 20.9999C50.2544 20.9999 56 26.7455 56 33.833C56 40.9212 50.2544 46.6664 43.1669 46.6664C36.0787 46.6664 30.3338 40.9212 30.3338 33.833C30.3423 26.7492 36.0828 21.0081 43.1669 20.9999Z" fill="#5F5F5F"/>
<path d="M5.83325 17.5001H31.4995C32.1437 17.5001 32.6664 16.9782 32.6664 16.3332C32.6664 15.6889 32.1437 15.167 31.4995 15.167H5.83325C5.18828 15.167 4.66602 15.6889 4.66602 16.3332C4.66602 16.9782 5.18828 17.5001 5.83325 17.5001Z" fill="#5F5F5F"/>
<path d="M5.83325 22.1665H16.3326C16.9775 22.1665 17.4995 21.6442 17.4995 20.9999C17.4995 20.3556 16.9775 19.833 16.3326 19.833H5.83325C5.18828 19.833 4.66602 20.3556 4.66602 20.9999C4.66602 21.6442 5.18828 22.1665 5.83325 22.1665Z" fill="#5F5F5F"/>
<path d="M57.1666 17.5001H61.8331C62.4781 17.5001 63 16.9782 63 16.3332C63 15.6889 62.4781 15.167 61.8331 15.167H57.1666C56.5226 15.167 56 15.6889 56 16.3332C56 16.9782 56.5226 17.5001 57.1666 17.5001Z" fill="#5F5F5F"/>
<path d="M61.8333 19.833H59.5002C58.8559 19.833 58.334 20.3556 58.334 20.9999C58.334 21.6442 58.8559 22.1665 59.5002 22.1665H61.8333C62.4783 22.1665 63.0002 21.6442 63.0002 20.9999C63.0002 20.3556 62.4783 19.833 61.8333 19.833Z" fill="#5F5F5F"/>
<path d="M61.8333 43.167H59.5002C58.8559 43.167 58.334 43.6896 58.334 44.3332C58.334 44.9782 58.8559 45.5001 59.5002 45.5001H61.8333C62.4783 45.5001 63.0002 44.9782 63.0002 44.3332C63.0002 43.6896 62.4783 43.167 61.8333 43.167Z" fill="#5F5F5F"/>
<path d="M61.8333 24.5H59.5002C58.8559 24.5 58.334 25.0223 58.334 25.6669C58.334 26.3108 58.8559 26.8331 59.5002 26.8331H61.8333C62.4783 26.8331 63.0002 26.3108 63.0002 25.6669C63.0002 25.0223 62.4783 24.5 61.8333 24.5Z" fill="#5F5F5F"/>
<path d="M53.666 52.5H51.3322C50.6879 52.5 50.166 53.0223 50.166 53.6669C50.166 54.3112 50.6879 54.8331 51.3322 54.8331H53.666C54.3103 54.8331 54.8322 54.3112 54.8322 53.6669C54.8322 53.0223 54.3103 52.5 53.666 52.5Z" fill="#5F5F5F"/>
<path d="M5.83325 26.8331H19.8326C20.4775 26.8331 20.9995 26.3108 20.9995 25.6669C20.9995 25.0223 20.4775 24.5 19.8326 24.5H5.83325C5.18828 24.5 4.66602 25.0223 4.66602 25.6669C4.66602 26.3108 5.18828 26.8331 5.83325 26.8331Z" fill="#5F5F5F"/>
<path d="M5.83325 31.5002H8.16636C8.8103 31.5002 9.33257 30.9776 9.33257 30.334C9.33257 29.689 8.8103 29.1667 8.16636 29.1667H5.83325C5.18828 29.1667 4.66602 29.689 4.66602 30.334C4.66602 30.9776 5.18828 31.5002 5.83325 31.5002Z" fill="#5F5F5F"/>
<path d="M19.8322 36.1668H22.1657C22.8103 36.1668 23.3329 35.6442 23.3329 34.9999C23.3329 34.3556 22.8103 33.833 22.1657 33.833H19.8322C19.1886 33.833 18.666 34.3556 18.666 34.9999C18.666 35.6442 19.1886 36.1668 19.8322 36.1668Z" fill="#5F5F5F"/>
<path d="M24.5 30.334C24.5 29.689 23.9774 29.1667 23.3338 29.1667H15.1669C14.5223 29.1667 14 29.689 14 30.334C14 30.9776 14.5223 31.5002 15.1669 31.5002H23.3338C23.9774 31.5002 24.5 30.9776 24.5 30.334Z" fill="#5F5F5F"/>
<path d="M15.166 44.3332C15.166 44.9782 15.6879 45.5001 16.3322 45.5001H24.4991C25.1434 45.5001 25.666 44.9782 25.666 44.3332C25.666 43.6896 25.1434 43.167 24.4991 43.167H16.3322C15.6879 43.167 15.166 43.6896 15.166 44.3332Z" fill="#5F5F5F"/>
<path d="M5.83325 36.1668H12.8333C13.4769 36.1668 13.9995 35.6442 13.9995 34.9999C13.9995 34.3556 13.4769 33.833 12.8333 33.833H5.83325C5.18828 33.833 4.66602 34.3556 4.66602 34.9999C4.66602 35.6442 5.18828 36.1668 5.83325 36.1668Z" fill="#5F5F5F"/>
<path d="M5.83325 40.8338H16.3326C16.9775 40.8338 17.4995 40.3112 17.4995 39.6666C17.4995 39.0226 16.9775 38.5 16.3326 38.5H5.83325C5.18828 38.5 4.66602 39.0226 4.66602 39.6666C4.66602 40.3112 5.18828 40.8338 5.83325 40.8338Z" fill="#5F5F5F"/>
<path d="M5.83325 45.5001H11.666C12.3106 45.5001 12.8333 44.9782 12.8333 44.3332C12.8333 43.6896 12.3106 43.167 11.666 43.167H5.83325C5.18828 43.167 4.66602 43.6896 4.66602 44.3332C4.66602 44.9782 5.18828 45.5001 5.83325 45.5001Z" fill="#5F5F5F"/>
<path d="M5.83325 50.1668H30.3333C30.9769 50.1668 31.4995 49.6442 31.4995 49C31.4995 48.3557 30.9769 47.8337 30.3333 47.8337H5.83325C5.18828 47.8337 4.66602 48.3557 4.66602 49C4.66602 49.6442 5.18828 50.1668 5.83325 50.1668Z" fill="#5F5F5F"/>
<path d="M15.1664 52.5H5.83325C5.18828 52.5 4.66602 53.0223 4.66602 53.6669C4.66602 54.3112 5.18828 54.8331 5.83325 54.8331H15.1664C15.8103 54.8331 16.3326 54.3112 16.3326 53.6669C16.3326 53.0223 15.8103 52.5 15.1664 52.5Z" fill="#5F5F5F"/>
<path d="M43.1678 52.5H28.0009C27.3566 52.5 26.834 53.0223 26.834 53.6669C26.834 54.3112 27.3566 54.8331 28.0009 54.8331H43.1678C43.8117 54.8331 44.334 54.3112 44.334 53.6669C44.334 53.0223 43.8117 52.5 43.1678 52.5Z" fill="#5F5F5F"/>
<path d="M6.99946 5.83398C6.99946 6.47759 6.47686 7.00019 5.83325 7.00019C5.18828 7.00019 4.66602 6.47759 4.66602 5.83398C4.66602 5.18901 5.18828 4.66675 5.83325 4.66675C6.47686 4.66675 6.99946 5.18901 6.99946 5.83398Z" fill="#5F5F5F"/>
<path d="M11.6674 5.83398C11.6674 6.47759 11.1452 7.00019 10.5009 7.00019C9.85659 7.00019 9.33398 6.47759 9.33398 5.83398C9.33398 5.18901 9.85659 4.66675 10.5009 4.66675C11.1452 4.66675 11.6674 5.18901 11.6674 5.83398Z" fill="#5F5F5F"/>
<path d="M16.3331 5.83398C16.3331 6.47759 15.8108 7.00019 15.1669 7.00019C14.5223 7.00019 14 6.47759 14 5.83398C14 5.18901 14.5223 4.66675 15.1669 4.66675C15.8108 4.66675 16.3331 5.18901 16.3331 5.83398Z" fill="#5F5F5F"/>
</svg>
