<svg width="70" height="70" viewBox="0 0 70 70" fill="none" xmlns="http://www.w3.org/2000/svg">
<path d="M43.2031 47.3047C42.4485 47.3047 41.8359 47.9173 41.8359 48.6719C41.8359 49.4265 42.4485 50.0391 43.2031 50.0391C43.9577 50.0391 44.5703 49.4265 44.5703 48.6719C44.5703 47.9173 43.9577 47.3047 43.2031 47.3047Z" fill="#005ED0"/>
<path d="M63.1641 0H6.83594C3.06656 0 0 3.06656 0 6.83594V48.6719C0 52.4413 3.06656 55.5078 6.83594 55.5078H28.1641V61.7969H26.7969C24.9715 61.7969 23.2555 62.5082 21.9637 63.7996C20.6723 65.0915 19.9609 66.8074 19.9609 68.6328C19.9609 69.388 20.573 70 21.3281 70H48.6719C49.427 70 50.0391 69.388 50.0391 68.6328C50.0391 64.8634 46.9725 61.7969 43.2031 61.7969H41.8359V55.5078H63.1641C66.9334 55.5078 70 52.4413 70 48.6719V6.83594C70 3.06656 66.9334 0 63.1641 0ZM6.83594 2.73438H63.1641C65.4258 2.73438 67.2656 4.5742 67.2656 6.83594V41.8359H60.9766V10.3906C60.9766 9.63547 60.3645 9.02344 59.6094 9.02344H48.6719C47.9167 9.02344 47.3047 9.63547 47.3047 10.3906V41.8359H40.4613C40.4469 40.4218 40.41 39.0279 40.3513 37.6756C40.112 32.1075 39.5667 28.3777 39.2831 26.7371C42.104 24.6601 42.8741 20.8106 41.1497 17.8199L36.411 9.6125C36.1664 9.18953 35.7151 8.92891 35.227 8.92891C34.7383 8.92891 34.287 9.18953 34.043 9.6125L29.3021 17.8204C27.6765 20.6403 28.2527 24.2927 30.8066 26.4481C30.5107 28.084 29.9136 31.9473 29.6541 37.673C29.5927 39.0396 29.5537 40.4346 29.5387 41.8359H22.6953V21.3281C22.6953 21.1113 22.644 20.9137 22.5602 20.738C22.5565 20.731 22.5543 20.7236 22.5511 20.7166L17.0824 9.77913C16.8506 9.3161 16.3774 9.02344 15.8594 9.02344C15.3413 9.02344 14.8682 9.3161 14.6364 9.77913L9.16763 20.7166C9.16443 20.7236 9.16229 20.731 9.15909 20.738C9.07364 20.9153 9.02344 21.1161 9.02344 21.3281V41.8359H2.73438V6.83594C2.73438 4.5742 4.5742 2.73438 6.83594 2.73438ZM50.0391 41.8359V11.7578H58.2422V14.4922H56.875C56.1198 14.4922 55.5078 15.1042 55.5078 15.8594C55.5078 16.6145 56.1198 17.2266 56.875 17.2266H58.2422V21.3281H56.875C56.1198 21.3281 55.5078 21.9402 55.5078 22.6953C55.5078 23.4505 56.1198 24.0625 56.875 24.0625H58.2422V28.1641H56.875C56.1198 28.1641 55.5078 28.7761 55.5078 29.5312C55.5078 30.2864 56.1198 30.8984 56.875 30.8984H58.2422V36.3672H56.875C56.1198 36.3672 55.5078 36.9792 55.5078 37.7344C55.5078 38.4895 56.1198 39.1016 56.875 39.1016H58.2422V41.8359H50.0391ZM35.227 28.0695C35.7236 28.0695 36.2182 28.0124 36.702 27.9056C36.9557 29.5318 37.3285 32.4093 37.5491 36.3672H32.46C32.6913 32.412 33.0817 29.4896 33.3514 27.8084C33.957 27.9809 34.5877 28.0695 35.227 28.0695ZM35.227 25.3352C32.1022 25.3352 30.0872 21.9343 31.6707 19.1871L35.227 13.0305L38.7811 19.1866C40.3587 21.9225 38.3715 25.3352 35.227 25.3352ZM32.3345 39.1016H37.6692C37.6981 39.9998 37.7178 40.9136 37.7274 41.8359H32.2731C32.2832 40.9195 32.3041 40.0057 32.3345 39.1016ZM17.2266 41.8359V22.6953H19.9609V41.8359H17.2266ZM11.7578 41.8359V22.6953H14.4922V41.8359H11.7578ZM12.6027 19.9609L15.8594 13.4476L19.1161 19.9609H12.6027ZM47.0702 67.2656H22.9282C23.129 66.6958 23.4569 66.1735 23.8969 65.7329C24.6724 64.958 25.7021 64.5312 26.7969 64.5312H43.2031C44.9858 64.5312 46.5063 65.6741 47.0702 67.2656ZM39.1016 61.7969H30.8984V55.5078H39.1016V61.7969ZM63.1641 52.7734H6.83594C4.5742 52.7734 2.73438 50.9336 2.73438 48.6719V44.5703H67.2656V48.6719C67.2656 50.9336 65.4258 52.7734 63.1641 52.7734Z" fill="#5F5F5F"/>
<path d="M37.7344 47.3047H29.5312C28.7761 47.3047 28.1641 47.9167 28.1641 48.6719C28.1641 49.427 28.7761 50.0391 29.5312 50.0391H37.7344C38.4895 50.0391 39.1016 49.427 39.1016 48.6719C39.1016 47.9167 38.4895 47.3047 37.7344 47.3047Z" fill="#5F5F5F"/>
</svg>
