<svg width="70" height="70" viewBox="0 0 70 70" fill="none" xmlns="http://www.w3.org/2000/svg">
<path d="M62.5276 55.7862C63.278 54.7493 63.7219 53.4769 63.7219 52.1021V43.8867C63.7219 43.1316 63.1096 42.5195 62.3547 42.5195H56.2445C53.4198 42.5195 51.1219 44.8175 51.1219 47.6421V52.1021C51.1219 53.476 51.5653 54.7475 52.3146 55.7841C51.38 55.9357 50.4808 56.2352 49.6422 56.6735C47.7426 53.839 44.6305 51.8842 41.0542 51.5545C41.0402 51.5505 41.026 51.5476 41.0119 51.5442C42.2915 50.1154 43.0715 48.2303 43.0715 46.1658V35C43.0715 34.2449 42.4592 33.6328 41.7043 33.6328H33.3997C29.8315 33.6328 26.9285 36.5358 26.9285 40.104V46.1657C26.9285 48.2301 27.7085 50.1152 28.9881 51.5441C28.974 51.5475 28.9598 51.5505 28.9458 51.5543C25.3691 51.8841 22.2569 53.8392 20.3574 56.674C19.5185 56.2358 18.6192 55.9361 17.685 55.7845C18.4345 54.7479 18.8781 53.4762 18.8781 52.1021V43.8867C18.8781 43.1316 18.2659 42.5195 17.5109 42.5195H11.4007C8.57609 42.5195 6.27812 44.8175 6.27812 47.6421V52.1021C6.27812 53.477 6.72205 54.7493 7.47236 55.7862C3.24051 56.4778 0 60.1582 0 64.5825V68.6328C0 69.3879 0.612227 70 1.36719 70H68.6328C69.3878 70 70 69.3879 70 68.6328V64.5825C70 60.1582 66.7595 56.4778 62.5276 55.7862ZM9.0125 47.6421C9.0125 46.3252 10.0838 45.2539 11.4007 45.2539H16.1438V46.919C16.1438 47.7355 15.4796 48.3997 14.6632 48.3997H9.0125V47.6421ZM9.0125 51.1339H14.6632C15.1841 51.1339 15.6829 51.0383 16.1438 50.8647V52.1021C16.1438 54.0682 14.5443 55.6678 12.5781 55.6678C10.612 55.6678 9.0125 54.0682 9.0125 52.1021V51.1339ZM13.4596 58.4022L12.5781 59.2836L11.6967 58.4022H13.4596ZM18.3958 63.128V67.2656H2.73438V64.5825C2.73438 61.5161 4.97971 58.9652 7.91232 58.4847L11.6114 62.1838C11.8679 62.4401 12.2155 62.5842 12.5781 62.5842C12.9407 62.5842 13.2884 62.4401 13.5449 62.1838L17.245 58.4835C17.8985 58.5899 18.527 58.8005 19.1127 59.1087C18.6495 60.3619 18.3958 61.7158 18.3958 63.128ZM35.0001 51.5029C32.0573 51.5029 29.663 49.1087 29.663 46.1658V44.3588H37.8339C38.7399 44.3588 39.5931 44.1273 40.3372 43.7207V46.1658C40.3372 49.1087 37.943 51.5029 35.0001 51.5029ZM37.3833 54.2371L35 56.6204L32.6167 54.2371H37.3833ZM29.6628 40.104H29.6629C29.6629 38.0435 31.3392 36.3672 33.3997 36.3672H40.3371V39.1213C40.3371 40.5016 39.2141 41.6246 37.8338 41.6246H29.6628V40.104ZM48.8697 67.2656H46.2109H23.7891H21.1303V64.5312H30.0326C30.7876 64.5312 31.3998 63.9192 31.3998 63.1641C31.3998 62.409 30.7876 61.7969 30.0326 61.7969H21.2302C21.8162 57.9112 24.9266 54.8439 28.8317 54.319L34.0333 59.5206C34.3003 59.7877 34.6501 59.9211 35 59.9211C35.3499 59.9211 35.6997 59.7877 35.9667 59.5206L41.1683 54.319C45.51 54.9026 48.8697 58.6291 48.8697 63.128V67.2656ZM53.8563 47.6421C53.8563 46.3252 54.9276 45.2539 56.2445 45.2539H60.9875V46.919C60.9875 47.7355 60.3233 48.3997 59.507 48.3997H53.8563V47.6421ZM53.8563 51.1339H59.507C60.0279 51.1339 60.5266 51.0383 60.9875 50.8647V52.1021C60.9875 54.0682 59.388 55.6678 57.4219 55.6678C55.4557 55.6678 53.8563 54.0682 53.8563 52.1021V51.1339ZM58.3033 58.4022L57.4219 59.2836L56.5405 58.4022H58.3033ZM51.6041 67.2656V63.128C51.6041 61.7157 51.3503 60.3617 50.887 59.1084C51.4724 58.8 52.1008 58.5895 52.7544 58.4832L56.455 62.1838C56.7115 62.4401 57.0592 62.5842 57.4217 62.5842C57.7843 62.5842 58.132 62.4401 58.3885 62.1838L62.0875 58.4847C65.0202 58.9653 67.2655 61.5161 67.2655 64.5825V67.2656H51.6041Z" fill="#5F5F5F"/>
<path d="M41.7378 8.93289C41.2038 8.399 40.3384 8.399 39.8042 8.93289L33.0954 15.6418L30.1952 12.7416C29.6612 12.2076 28.7958 12.2076 28.2617 12.7415C27.7279 13.2753 27.7279 14.141 28.2617 14.6751L32.1287 18.542C32.3852 18.7984 32.7329 18.9425 33.0954 18.9425C33.458 18.9425 33.8057 18.7984 34.0622 18.542L41.7378 10.8664C42.2717 10.3325 42.2717 9.46677 41.7378 8.93289Z" fill="#005ED0"/>
<path d="M40.5891 1.18551C39.8996 0.878025 39.0912 1.18769 38.7836 1.8773C38.476 2.56691 38.7858 3.37533 39.4754 3.68281C43.4401 5.45099 46.0019 9.39765 46.0019 13.7374C46.0019 19.8044 41.066 24.7404 34.9989 24.7404C28.9319 24.7404 23.996 19.8044 23.996 13.7374C23.996 9.42008 26.5393 5.48162 30.4755 3.70387C31.1636 3.3931 31.4696 2.58318 31.1587 1.89508C30.8479 1.20683 30.0376 0.900994 29.35 1.21176C24.4366 3.43097 21.2617 8.34752 21.2617 13.7372C21.2616 21.3121 27.4242 27.4747 34.9989 27.4747C42.5737 27.4747 48.7363 21.3121 48.7363 13.7374C48.7363 8.31963 45.5383 3.39269 40.5891 1.18551Z" fill="#5F5F5F"/>
<path d="M35.0489 0H35C34.245 0 33.6328 0.61209 33.6328 1.36719C33.6328 2.12229 34.245 2.73438 35 2.73438H35.0361C35.0383 2.73438 35.0403 2.73438 35.0427 2.73438C35.7947 2.73438 36.4061 2.12652 36.4097 1.37361C36.4133 0.618516 35.804 0.00355469 35.0489 0Z" fill="#5F5F5F"/>
<path d="M35.9665 62.1975C35.7123 61.9432 35.3596 61.7969 35 61.7969C34.6404 61.7969 34.2877 61.9432 34.0334 62.1975C33.7791 62.4518 33.6328 62.8045 33.6328 63.1641C33.6328 63.5236 33.779 63.8764 34.0334 64.1307C34.2878 64.385 34.6404 64.5312 35 64.5312C35.3596 64.5312 35.7123 64.385 35.9665 64.1307C36.2208 63.8764 36.3672 63.5236 36.3672 63.1641C36.3672 62.8045 36.2209 62.4518 35.9665 62.1975Z" fill="#5F5F5F"/>
</svg>
