<svg width="26" height="22" viewBox="0 0 26 22" fill="none" xmlns="http://www.w3.org/2000/svg">
<path d="M13 21.5C12.337 21.5 11.7011 21.2366 11.2322 20.7678C10.7634 20.2989 10.5 19.663 10.5 19V16.54L7.3 13.34H3C2.33696 13.34 1.70107 13.0766 1.23223 12.6078C0.763392 12.1389 0.5 11.503 0.5 10.84C0.5 10.177 0.763392 9.54107 1.23223 9.07223C1.70107 8.60339 2.33696 8.34 3 8.34H5.83V3C5.83 2.6717 5.89466 2.34661 6.0203 2.04329C6.14594 1.73998 6.33009 1.46438 6.56223 1.23223C6.79438 1.00009 7.06998 0.815938 7.37329 0.690301C7.67661 0.564664 8.0017 0.5 8.33 0.5C8.6583 0.5 8.98339 0.564664 9.28671 0.690301C9.59002 0.815938 9.86562 1.00009 10.0978 1.23223C10.3299 1.46438 10.5141 1.73998 10.6397 2.04329C10.7653 2.34661 10.83 2.6717 10.83 3V9.8L13 12L15.17 9.8V3C15.17 2.33696 15.4334 1.70107 15.9022 1.23223C16.3711 0.763392 17.007 0.5 17.67 0.5C18.333 0.5 18.9689 0.763392 19.4378 1.23223C19.9066 1.70107 20.17 2.33696 20.17 3V8.33H23C23.663 8.33 24.2989 8.59339 24.7678 9.06223C25.2366 9.53107 25.5 10.167 25.5 10.83C25.5 11.493 25.2366 12.1289 24.7678 12.5978C24.2989 13.0666 23.663 13.33 23 13.33H18.7L15.5 16.53V19C15.5 19.663 15.2366 20.2989 14.7678 20.7678C14.2989 21.2366 13.663 21.5 13 21.5Z" fill="#FF6100"/>
</svg>
