<svg width="70" height="70" viewBox="0 0 70 70" fill="none" xmlns="http://www.w3.org/2000/svg">
<path d="M43.2031 36.3672C42.4484 36.3672 41.8359 36.9797 41.8359 37.7344C41.8359 38.4891 42.4484 39.1016 43.2031 39.1016C43.9578 39.1016 44.5703 38.4891 44.5703 37.7344C44.5703 36.9797 43.9578 36.3672 43.2031 36.3672Z" fill="#005ED0"/>
<path d="M26.7969 30.8984C26.0422 30.8984 25.4297 31.5109 25.4297 32.2656C25.4297 33.0203 26.0422 33.6328 26.7969 33.6328C27.5516 33.6328 28.1641 33.0203 28.1641 32.2656C28.1641 31.5109 27.5516 30.8984 26.7969 30.8984Z" fill="#005ED0"/>
<path d="M68.6328 30.8984C69.3878 30.8984 70 30.2862 70 29.5312C70 28.7763 69.3878 28.1641 68.6328 28.1641H60.9766V19.9609H68.6328C69.3878 19.9609 70 19.3487 70 18.5938C70 17.8388 69.3878 17.2266 68.6328 17.2266H60.1758L52.7734 9.8242V1.36719C52.7734 0.612227 52.1612 0 51.4062 0C50.6513 0 50.0391 0.612227 50.0391 1.36719V9.02344H41.8359V1.36719C41.8359 0.612227 41.2237 0 40.4688 0C39.7138 0 39.1016 0.612227 39.1016 1.36719V9.02344H30.8984V1.36719C30.8984 0.612227 30.2862 0 29.5312 0C28.7763 0 28.1641 0.612227 28.1641 1.36719V9.02344H19.9609V1.36719C19.9609 0.612227 19.3487 0 18.5938 0C17.8388 0 17.2266 0.612227 17.2266 1.36719V9.8242L9.8242 17.2266H1.36719C0.612227 17.2266 0 17.8388 0 18.5938C0 19.3487 0.612227 19.9609 1.36719 19.9609H9.02344V28.1641H1.36719C0.612227 28.1641 0 28.7763 0 29.5312C0 30.2862 0.612227 30.8984 1.36719 30.8984H9.02344V39.1016H1.36719C0.612227 39.1016 0 39.7138 0 40.4688C0 41.2237 0.612227 41.8359 1.36719 41.8359H9.02344V50.0391H1.36719C0.612227 50.0391 0 50.6513 0 51.4062C0 52.1612 0.612227 52.7734 1.36719 52.7734H9.8242L17.2266 60.1758V68.6328C17.2266 69.3878 17.8388 70 18.5938 70C19.3487 70 19.9609 69.3878 19.9609 68.6328V60.9766H28.1641V68.6328C28.1641 69.3878 28.7763 70 29.5312 70C30.2862 70 30.8984 69.3878 30.8984 68.6328V60.9766H39.1016V68.6328C39.1016 69.3878 39.7138 70 40.4688 70C41.2237 70 41.8359 69.3878 41.8359 68.6328V60.9766H50.0391V68.6328C50.0391 69.3878 50.6513 70 51.4062 70C52.1612 70 52.7734 69.3878 52.7734 68.6328V60.1758L60.1758 52.7734H68.6328C69.3878 52.7734 70 52.1612 70 51.4062C70 50.6513 69.3878 50.0391 68.6328 50.0391H60.9766V41.8359H68.6328C69.3878 41.8359 70 41.2237 70 40.4688C70 39.7138 69.3878 39.1016 68.6328 39.1016H60.9766V30.8984H68.6328ZM58.2422 50.84L50.8398 58.2422H19.1602L11.7578 50.8398V19.1602L19.1602 11.7578H50.84L58.2422 19.1602V50.84Z" fill="#5F5F5F"/>
<path d="M52.373 21.0245L48.9755 17.627C48.719 17.3707 48.3714 17.2266 48.0088 17.2266H21.9912C21.6286 17.2266 21.281 17.3707 21.0245 17.627L17.627 21.0245C17.3707 21.281 17.2266 21.6286 17.2266 21.9912V48.0088C17.2266 48.3714 17.3707 48.719 17.627 48.9755L21.0245 52.373C21.2808 52.6293 21.6285 52.7734 21.9912 52.7734H48.0088C48.3714 52.7734 48.719 52.6293 48.9755 52.373L52.373 48.9755C52.6293 48.719 52.7734 48.3714 52.7734 48.0088V21.9912C52.7734 21.6286 52.6293 21.281 52.373 21.0245ZM50.0391 47.4425L47.4425 50.0391H22.5575L19.9609 47.4425V22.5575L22.5575 19.9609H47.4425L50.0391 22.5575V47.4425Z" fill="#5F5F5F"/>
<path d="M43.2031 25.4297H26.7969C26.0419 25.4297 25.4297 26.0419 25.4297 26.7969C25.4297 27.5518 26.0419 28.1641 26.7969 28.1641H41.8359V32.2656C41.8359 33.0206 42.4482 33.6328 43.2031 33.6328C43.9581 33.6328 44.5703 33.0206 44.5703 32.2656V26.7969C44.5703 26.0419 43.9581 25.4297 43.2031 25.4297Z" fill="#005ED0"/>
<path d="M43.2031 41.8359H28.1641V37.7344C28.1641 36.9794 27.5518 36.3672 26.7969 36.3672C26.0419 36.3672 25.4297 36.9794 25.4297 37.7344V43.2031C25.4297 43.9581 26.0419 44.5703 26.7969 44.5703H43.2031C43.9581 44.5703 44.5703 43.9581 44.5703 43.2031C44.5703 42.4482 43.9581 41.8359 43.2031 41.8359Z" fill="#005ED0"/>
</svg>
