<svg width="70" height="70" viewBox="0 0 70 70" fill="none" xmlns="http://www.w3.org/2000/svg">
<path d="M46.2858 33.6328C47.0467 33.6328 47.6635 33.0207 47.6635 32.2656C47.6635 31.5105 47.0467 30.8984 46.2858 30.8984C45.525 30.8984 44.9082 31.5105 44.9082 32.2656C44.9082 33.0207 45.525 33.6328 46.2858 33.6328Z" fill="#005ED0"/>
<path d="M46.5215 38.1239C45.7694 38.013 45.0684 38.5291 44.9569 39.276C44.5804 41.7992 42.4313 43.8918 39.2082 44.874C35.7632 45.9238 30.9813 45.5719 28.0642 42.4193C27.5495 41.8631 26.678 41.8265 26.1177 42.337C25.5573 42.8478 25.5202 43.7127 26.0348 44.2687C27.7235 46.0938 30.0171 47.3376 32.6676 47.8658C33.6036 48.0523 34.5746 48.1448 35.5518 48.1448C37.0615 48.1448 38.5859 47.924 40.017 47.4879C44.2808 46.1886 47.1464 43.2686 47.6824 39.6766C47.7939 38.9297 47.2741 38.2345 46.5215 38.1239Z" fill="#5F5F5F"/>
<path d="M65.6697 26.0328C63.1657 23.152 59.7098 21.2841 55.5499 20.5339C59.5326 17.8665 62.9679 15.212 65.4173 12.8957C69.1519 9.36414 70.4042 6.88242 69.3585 5.08607C68.195 3.08533 64.8362 3.09914 58.7876 5.12996C53.677 6.84578 47.3104 9.82584 40.8609 13.5213C39.7468 14.1596 38.6432 14.8131 37.5634 15.4716C36.7626 13.2271 37.2908 10.6632 39.0577 8.44006C40.3812 6.77482 40.6767 4.65979 39.8291 2.92004C38.9405 1.09662 36.9903 0.00492187 34.6091 0H34.5443C26.14 0 17.9195 3.29096 11.3974 9.26666C4.86719 15.2497 0.869314 23.1701 0.140273 31.5686C-0.736863 41.6831 2.52095 51.2991 9.31335 58.6451C15.9858 65.8614 25.4452 70 35.2662 70C40.5536 70 45.5172 69.04 50.0188 67.1463C54.1352 65.4147 57.7906 62.9423 60.8836 59.7974C63.7515 56.8813 66.0126 53.5244 67.6041 49.8198C69.1187 46.2946 69.9461 42.5589 69.9973 39.0167C70.0719 33.8654 68.5754 29.3757 65.6697 26.0328ZM37.7245 18.5921C39.1825 17.6795 40.7011 16.7702 42.2384 15.8895C48.2016 12.4726 54.1397 9.65822 58.9591 7.96469C64.2643 6.10053 66.4365 6.22221 66.9429 6.46283C66.8991 6.78098 66.5009 8.19643 63.0195 11.3781C60.1124 14.035 55.8673 17.1594 51.0661 20.1759C49.5484 21.1297 47.9688 22.0778 46.3714 22.9932C44.1693 24.2546 41.9688 25.4341 39.8091 26.514C39.3782 25.2659 38.8259 24.0547 38.1537 22.8992C37.5023 21.7793 36.7466 20.7279 35.902 19.7552C36.4998 19.3663 37.108 18.9775 37.7245 18.5921ZM37.3131 27.7268C33.4231 29.5576 29.8537 30.9534 27.0032 31.763C26.8548 31.0558 26.5939 30.3722 26.2237 29.7354C25.8729 29.1318 25.4327 28.5921 24.924 28.1267C27.0579 26.0829 30.0614 23.715 33.5981 21.2924C34.4191 22.2031 35.1471 23.1993 35.7677 24.2661C36.4095 25.3694 36.9261 26.5299 37.3131 27.7268ZM67.2424 38.9774C67.0459 52.582 54.7648 67.2656 35.2662 67.2656C26.2149 67.2656 17.4955 63.4498 11.3436 56.7965C5.07907 50.0216 2.07543 41.1454 2.88547 31.8032C4.27674 15.7746 18.4789 2.73438 34.5443 2.73438H34.6062C35.9242 2.73711 36.9238 3.23859 37.3485 4.11045C37.7391 4.91189 37.5693 5.89736 36.8943 6.74666C34.4114 9.87068 33.7887 13.7129 35.1916 16.9524C34.453 17.4247 33.7271 17.8989 33.0258 18.3694C33.0225 18.3716 33.0192 18.3738 33.016 18.376C28.6353 21.3095 24.9361 24.2275 22.4748 26.6831C20.6081 26.05 18.5571 26.2346 16.8139 27.2331C13.9517 28.8739 10.1935 36.5199 9.4693 38.036C9.27533 38.4418 9.29475 38.9163 9.52096 39.3053C9.7473 39.6942 10.1516 39.9481 10.6027 39.9845C11.3641 40.0457 13.5263 40.2005 15.9329 40.2005C18.8532 40.2005 22.133 39.9725 23.7021 39.073C25.4019 38.0993 26.58 36.4723 26.9881 34.602C30.3664 33.722 34.7805 32.0003 39.5611 29.6887C42.2396 28.395 44.9943 26.9391 47.7491 25.3613C49.1464 24.5604 50.5279 23.7348 51.8705 22.902C51.8786 22.9024 51.8865 22.9037 51.8946 22.9039C63.377 23.2307 67.3516 31.4213 67.2424 38.9774ZM24.3843 33.41C24.2962 34.7849 23.5263 36.0165 22.3245 36.705C21.0217 37.4519 16.546 37.5525 12.8712 37.3857C14.5623 34.145 16.8876 30.3488 18.1918 29.6012C19.4231 28.8958 20.9117 28.8649 22.1748 29.5188C22.8689 29.8776 23.4437 30.4248 23.8371 31.1017C24.2464 31.8058 24.4356 32.604 24.3843 33.41Z" fill="#5F5F5F"/>
<path d="M24.2429 8.45459C21.2044 8.45459 18.7324 10.9079 18.7324 13.9233C18.7324 16.9388 21.2044 19.3921 24.2429 19.3921C27.2814 19.3921 29.7535 16.9388 29.7535 13.9233C29.7535 10.9079 27.2814 8.45459 24.2429 8.45459ZM24.2429 16.6577C22.7237 16.6577 21.4877 15.4311 21.4877 13.9233C21.4877 12.4156 22.7237 11.189 24.2429 11.189C25.7622 11.189 26.9982 12.4156 26.9982 13.9233C26.9982 15.4311 25.7622 16.6577 24.2429 16.6577Z" fill="#5F5F5F"/>
<path d="M17.3543 45.1924C14.3158 45.1924 11.8438 47.6457 11.8438 50.6611C11.8438 53.6766 14.3158 56.1299 17.3543 56.1299C20.3928 56.1299 22.8648 53.6766 22.8648 50.6611C22.8648 47.6457 20.3928 45.1924 17.3543 45.1924ZM17.3543 53.3955C15.835 53.3955 14.599 52.1689 14.599 50.6611C14.599 49.1534 15.835 47.9268 17.3543 47.9268C18.8735 47.9268 20.1095 49.1534 20.1095 50.6611C20.1095 52.1689 18.8735 53.3955 17.3543 53.3955Z" fill="#5F5F5F"/>
<path d="M31.1316 53.3955C28.0931 53.3955 25.6211 55.8488 25.6211 58.8643C25.6211 61.8797 28.0931 64.333 31.1316 64.333C34.1701 64.333 36.6421 61.8797 36.6421 58.8643C36.6421 55.8488 34.1701 53.3955 31.1316 53.3955ZM31.1316 61.5986C29.6124 61.5986 28.3764 60.372 28.3764 58.8643C28.3764 57.3565 29.6124 56.1299 31.1316 56.1299C32.6509 56.1299 33.8869 57.3565 33.8869 58.8643C33.8869 60.372 32.6509 61.5986 31.1316 61.5986Z" fill="#5F5F5F"/>
<path d="M47.6629 50.6611C44.6244 50.6611 42.1523 53.1144 42.1523 56.1299C42.1523 59.1454 44.6244 61.5986 47.6629 61.5986C50.7014 61.5986 53.1734 59.1454 53.1734 56.1299C53.1734 53.1144 50.7014 50.6611 47.6629 50.6611ZM47.6629 58.8643C46.1436 58.8643 44.9076 57.6376 44.9076 56.1299C44.9076 54.6221 46.1436 53.3955 47.6629 53.3955C49.1821 53.3955 50.4181 54.6221 50.4181 56.1299C50.4181 57.6376 49.1821 58.8643 47.6629 58.8643Z" fill="#5F5F5F"/>
<path d="M58.6843 36.9893C55.6458 36.9893 53.1738 39.4425 53.1738 42.458C53.1738 45.4735 55.6458 47.9268 58.6843 47.9268C61.7228 47.9268 64.1949 45.4735 64.1949 42.458C64.1949 39.4425 61.7228 36.9893 58.6843 36.9893ZM58.6843 45.1924C57.1651 45.1924 55.9291 43.9657 55.9291 42.458C55.9291 40.9503 57.1651 39.7236 58.6843 39.7236C60.2036 39.7236 61.4396 40.9503 61.4396 42.458C61.4396 43.9657 60.2036 45.1924 58.6843 45.1924Z" fill="#5F5F5F"/>
</svg>
