<svg width="70" height="70" viewBox="0 0 70 70" fill="none" xmlns="http://www.w3.org/2000/svg">
<path d="M63.0001 13.9998H47.8334C47.8318 12.0126 46.9832 10.1199 45.5001 8.79646V4.6666C45.5001 2.08923 43.4109 0 40.8335 0C38.2561 0 36.1669 2.08923 36.1669 4.6666V8.79646C34.6833 10.1199 33.8347 12.0126 33.8331 13.9998H13.9998V11.6665C13.9998 7.80045 10.8659 4.6666 6.99989 4.6666C3.13385 4.6666 0 7.80045 0 11.6665V63.0001C0.00373841 66.8645 3.13545 69.9963 6.99989 70H63.0001C66.8645 69.9963 69.9963 66.8645 70 63.0001V21.0002C69.9963 17.1358 66.8645 14.0041 63.0001 13.9998ZM57.2836 47.6L51.3496 34.8681L44.4149 20.0026C45.1118 19.5887 45.7324 19.0578 46.2489 18.4335L58.0008 43.6336C58.6246 44.9735 58.3389 46.5613 57.2868 47.6H57.2836ZM24.3835 47.6C23.3292 46.5602 23.0441 44.9693 23.6705 43.6277L35.4176 18.4335C35.9335 19.0594 36.5541 19.5919 37.2516 20.0074L30.3217 34.859L24.3835 47.6ZM39.4332 20.8598C40.3609 21.0499 41.3174 21.0499 42.245 20.8598L48.7012 34.7015C43.6427 36.6582 38.0356 36.6582 32.977 34.7015L39.4332 20.8598ZM38.5002 4.6666C38.5002 3.37791 39.5448 2.3333 40.8335 2.3333C42.1222 2.3333 43.1668 3.37791 43.1668 4.6666V7.40845C41.6586 6.86371 40.0079 6.86371 38.5002 7.40845V4.6666ZM40.8335 9.33319C43.4109 9.33319 45.5001 11.4224 45.5001 13.9998C45.5001 16.5771 43.4109 18.6669 40.8335 18.6669C38.2561 18.6669 36.1669 16.5771 36.1669 13.9998C36.1669 11.4224 38.2561 9.33319 40.8335 9.33319ZM6.99989 6.99989C9.57726 6.99989 11.6665 9.08913 11.6665 11.6665V53.1302C9.01649 50.7344 4.98329 50.7344 2.3333 53.1302V11.6665C2.3333 9.08913 4.42253 6.99989 6.99989 6.99989ZM67.6667 63.0001C67.6667 65.5775 65.5775 67.6667 63.0001 67.6667H6.99989C4.42253 67.6667 2.3333 65.5775 2.3333 63.0001V58.3335C2.3333 55.7561 4.42253 53.6669 6.99989 53.6669C9.57726 53.6669 11.6665 55.7561 11.6665 58.3335C11.6665 58.9776 12.1888 59.4999 12.8334 59.4999C13.4775 59.4999 13.9998 58.9776 13.9998 58.3335V16.3331H33.8203L21.554 42.636C20.3775 45.1455 21.1332 48.1373 23.3613 49.7865L22.3263 52.0028C22.134 52.383 22.1639 52.8375 22.4048 53.1889C22.6451 53.5409 23.0585 53.7331 23.482 53.6909C23.906 53.6493 24.2735 53.3796 24.4406 52.9876L26.9058 47.7015L31.9831 36.8153C37.6698 39.0599 43.9967 39.0599 49.6839 36.8153L54.7612 47.7015L57.2264 52.9876C57.393 53.3796 57.7605 53.6493 58.1845 53.6909C58.6086 53.7331 59.0214 53.5409 59.2622 53.1889C59.5026 52.8375 59.5325 52.383 59.3402 52.0028L58.3052 49.7865C60.5322 48.1378 61.289 45.1476 60.1135 42.6381L47.8462 16.3331H63.0001C65.5775 16.3331 67.6667 18.4229 67.6667 21.0002V63.0001Z" fill="#5F5F5F"/>
<path d="M40.1801 14.9686C40.2458 15.0124 40.3168 15.0476 40.3916 15.0732C40.4572 15.1069 40.5283 15.1304 40.6014 15.1432C40.6783 15.1566 40.7563 15.164 40.8348 15.1667C40.9085 15.1646 40.9822 15.1571 41.0554 15.1432C41.1328 15.1325 41.2081 15.109 41.2781 15.0732C41.3497 15.0498 41.4164 15.0145 41.4762 14.9686C41.543 14.928 41.6055 14.881 41.6631 14.8281C42.116 14.3715 42.1139 13.635 41.6583 13.1805C41.2033 12.7266 40.4663 12.7266 40.0108 13.1805C39.5552 13.635 39.5536 14.3715 40.0065 14.8281C40.0615 14.8783 40.1197 14.9248 40.1801 14.9686Z" fill="#5F5F5F"/>
<path d="M54.7426 57.8874C54.6839 57.7454 54.5979 57.6161 54.4895 57.5072L50.9893 54.007C50.5316 53.5653 49.8042 53.5712 49.354 54.0214C48.9038 54.4716 48.8974 55.199 49.3396 55.6567L50.8494 57.1665H30.8152L32.324 55.6583C32.7662 55.2001 32.7598 54.4727 32.3095 54.0225C31.8599 53.5728 31.1319 53.5664 30.6743 54.0086L27.174 57.5083C27.0752 57.6092 26.9962 57.7283 26.9407 57.8586C26.9252 57.8965 26.9113 57.9355 26.9001 57.975C26.8691 58.0685 26.8499 58.1657 26.8429 58.2645C26.8429 58.3051 26.836 58.3425 26.8429 58.3809C26.8467 58.5069 26.8712 58.6314 26.915 58.7499C26.915 58.7601 26.915 58.7708 26.922 58.7798C26.9791 58.9075 27.0582 59.0234 27.1554 59.1232C27.165 59.1334 27.1682 59.1473 27.1789 59.158L30.6791 62.6582C31.1368 63.1004 31.8641 63.094 32.3143 62.6438C32.7646 62.1935 32.7704 61.4662 32.3288 61.0085L30.8152 59.4998H50.8494L49.3406 61.0085C49.0378 61.3011 48.9161 61.7348 49.0229 62.1428C49.1297 62.5508 49.448 62.8697 49.856 62.9759C50.264 63.0828 50.6977 62.9615 50.9903 62.6582L54.4906 59.158C54.8243 58.8242 54.9242 58.3227 54.7437 57.8864L54.7426 57.8874Z" fill="#005ED0"/>
<path d="M17.5009 24.5C18.145 24.5 18.6678 23.9777 18.6678 23.3336V21.0003H21.0011C21.6452 21.0003 22.1675 20.478 22.1675 19.8334C22.1675 19.1893 21.6452 18.667 21.0011 18.667H17.5009C16.8568 18.667 16.334 19.1893 16.334 19.8334V23.3336C16.334 23.9777 16.8568 24.5 17.5009 24.5Z" fill="#5F5F5F"/>
<path d="M64.1666 18.667H60.6669C60.0223 18.667 59.5 19.1893 59.5 19.8334C59.5 20.478 60.0223 21.0003 60.6669 21.0003H63.0002V23.3336C63.0002 23.9777 63.5225 24.5 64.1666 24.5C64.8112 24.5 65.3335 23.9777 65.3335 23.3336V19.8334C65.3335 19.1893 64.8112 18.667 64.1666 18.667Z" fill="#5F5F5F"/>
<path d="M21.0011 63.0002H18.6678V60.6669C18.6678 60.0223 18.145 59.5 17.5009 59.5C16.8568 59.5 16.334 60.0223 16.334 60.6669V64.1666C16.334 64.8112 16.8568 65.3335 17.5009 65.3335H21.0011C21.6452 65.3335 22.1675 64.8112 22.1675 64.1666C22.1675 63.5225 21.6452 63.0002 21.0011 63.0002Z" fill="#5F5F5F"/>
<path d="M64.1666 59.5C63.5225 59.5 63.0002 60.0223 63.0002 60.6669V63.0002H60.6669C60.0223 63.0002 59.5 63.5225 59.5 64.1666C59.5 64.8112 60.0223 65.3335 60.6669 65.3335H64.1666C64.8112 65.3335 65.3335 64.8112 65.3335 64.1666V60.6669C65.3335 60.0223 64.8112 59.5 64.1666 59.5Z" fill="#5F5F5F"/>
</svg>
