<svg width="58" height="70" viewBox="0 0 58 70" fill="none" xmlns="http://www.w3.org/2000/svg">
<path d="M29.0007 5.47021C28.2359 5.47021 27.6211 6.07998 27.6211 6.83603C27.6211 7.53973 28.1558 8.12529 28.8626 8.19475C29.6808 8.27514 30.3802 7.64418 30.3802 6.83603C30.3802 6.07889 29.7643 5.47021 29.0007 5.47021Z" fill="#5F5F5F"/>
<path d="M56.619 8.20312C52.8118 8.20312 49.7143 5.13652 49.7143 1.36719C49.7143 0.612227 49.0959 0 48.3333 0H9.66667C8.90411 0 8.28572 0.612227 8.28572 1.36719C8.28572 5.13652 5.18824 8.20312 1.38095 8.20312C0.618391 8.20312 0 8.81535 0 9.57031V31.8814C0 49.2689 11.4474 64.8491 28.6034 69.9424C28.7328 69.9807 28.8663 70 29 70C29.1337 70 29.2675 69.9807 29.3967 69.9423C46.1811 64.9577 58 49.6493 58 31.8814V9.57031C58 8.81535 57.3816 8.20312 56.619 8.20312ZM55.2381 31.8814C55.2381 48.2122 44.7123 62.355 29 67.2031C13.4129 62.3937 2.7619 48.1228 2.7619 31.8814V10.8402C6.98914 10.2389 10.342 6.91947 10.9493 2.73438H47.0507C47.6581 6.91947 51.0109 10.2389 55.2381 10.8402V31.8814Z" fill="#5F5F5F"/>
<path d="M51.6489 12.6451C48.7691 11.3965 46.4884 9.13855 45.2272 6.28742C45.0071 5.79004 44.5108 5.46875 43.9622 5.46875H34.5207C33.7581 5.46875 33.1397 6.08098 33.1397 6.83594C33.1397 7.5909 33.7581 8.20312 34.5207 8.20312H43.0891C44.548 11.0306 46.858 13.3174 49.7139 14.7619V31.8814C49.7139 45.2611 41.601 56.8057 28.9996 61.4269C16.3983 56.8055 8.28534 45.2611 8.28534 31.8814V14.7619C11.1413 13.3174 13.4511 11.0306 14.9102 8.20312H23.4786C24.2411 8.20312 24.8595 7.5909 24.8595 6.83594C24.8595 6.08098 24.2411 5.46875 23.4786 5.46875H14.037C13.4885 5.46875 12.9922 5.79018 12.7721 6.28742C11.5108 9.13855 9.23019 11.3965 6.35035 12.6451C5.8481 12.863 5.52344 13.3546 5.52344 13.8975V31.8814C5.52344 46.5395 14.6807 59.3145 28.5389 64.1698C28.6879 64.222 28.8437 64.2481 28.9996 64.2481C29.1555 64.2481 29.3113 64.222 29.4603 64.1698C43.307 59.3186 52.4758 46.5514 52.4758 31.8814V13.8975C52.4758 13.3544 52.1512 12.863 51.6489 12.6451Z" fill="#5F5F5F"/>
<path d="M29.0008 19.9609C22.1477 19.9609 16.5723 25.4808 16.5723 32.2656C16.5723 39.0504 22.1477 44.5703 29.0008 44.5703C35.854 44.5703 41.4294 39.0504 41.4294 32.2656C41.4294 25.4808 35.854 19.9609 29.0008 19.9609ZM29.0008 41.8359C23.6706 41.8359 19.3342 37.5427 19.3342 32.2656C19.3342 26.9886 23.6706 22.6953 29.0008 22.6953C34.331 22.6953 38.6675 26.9886 38.6675 32.2656C38.6675 37.5427 34.331 41.8359 29.0008 41.8359Z" fill="#5F5F5F"/>
<path d="M35.5008 28.5644C34.9614 28.0306 34.0872 28.0306 33.5477 28.5644L27.6195 34.4336L25.8341 32.6661C25.2947 32.1323 24.4205 32.1323 23.881 32.6661C23.3417 33.2 23.3417 34.0657 23.881 34.5997L26.6429 37.3341C26.9128 37.6008 27.266 37.7344 27.6195 37.7344C27.973 37.7344 28.3263 37.6008 28.596 37.3339L35.5008 30.498C36.04 29.9641 36.04 29.0984 35.5008 28.5644Z" fill="#005ED0"/>
</svg>
