<svg width="12" height="18" viewBox="0 0 12 18" fill="none" xmlns="http://www.w3.org/2000/svg">
<path d="M6.61711 1.25184L6.61711 15.4035L10.0155 12.0267C10.313 11.7309 10.7957 11.7309 11.0931 12.0267C11.3908 12.3226 11.3908 12.8022 11.0931 13.0976L6.39392 17.7671C6.0964 18.063 5.61371 18.063 5.31628 17.7671L0.61685 13.0976C0.467956 12.9497 0.39362 12.7559 0.39362 12.5621C0.39362 12.3684 0.467956 12.1746 0.61685 12.0267C0.914373 11.7309 1.39701 11.7309 1.69445 12.0267L5.093 15.4035L5.093 1.25184C5.093 0.833633 5.43423 0.494507 5.85508 0.494507C6.27593 0.494507 6.61711 0.83359 6.61711 1.25184Z" fill="#333333"/>
</svg>