<svg width="70" height="70" viewBox="0 0 70 70" fill="none" xmlns="http://www.w3.org/2000/svg">
<path d="M38.0539 62.7542H32.0156C31.2607 62.7542 30.6484 63.3665 30.6484 64.1215C30.6484 64.8766 31.2607 65.4889 32.0156 65.4889H38.0539C38.8088 65.4889 39.421 64.8766 39.421 64.1215C39.421 63.3665 38.8089 62.7542 38.0539 62.7542Z" fill="#5F5F5F"/>
<path d="M49.0915 10.2983C48.8373 10.0441 48.4846 9.89771 48.125 9.89771C47.7654 9.89771 47.4127 10.044 47.1584 10.2983C46.9041 10.5526 46.7578 10.9053 46.7578 11.2649C46.7578 11.6259 46.904 11.9771 47.1584 12.2314C47.4127 12.4871 47.7654 12.632 48.125 12.632C48.4846 12.632 48.8372 12.4872 49.0915 12.2314C49.3458 11.9771 49.4922 11.6244 49.4922 11.2649C49.4922 10.9053 49.3459 10.5538 49.0915 10.2983Z" fill="#5F5F5F"/>
<path d="M68.6328 21.0531C69.3878 21.0531 70 20.4409 70 19.6859V11.2649C70 10.7311 69.6933 10.2698 69.2472 10.0448C69.2405 10.0411 69.2345 10.0373 69.2271 10.0336L48.7193 0.135967C48.3439 -0.0453222 47.9062 -0.0453222 47.5308 0.135967L27.023 10.0336C26.5505 10.2616 26.2501 10.7401 26.2501 11.2649C26.2501 11.7896 26.5505 12.2681 27.023 12.4962L35.0159 16.3537V24.8097C35.0159 24.8738 35.0211 24.9371 35.0298 24.9995H34.6499C32.1378 24.9995 30.094 27.0433 30.094 29.5555C30.094 32.0676 32.1378 34.1114 34.6499 34.1114H35.0915C35.507 37.9868 37.6179 41.3617 40.6659 43.4785H27.9295C27.1294 43.4785 26.373 43.669 25.7033 44.0066V23.8297C25.7033 22.6021 26.702 21.6035 27.9295 21.6035H31.4612C32.2161 21.6035 32.8284 20.9913 32.8284 20.2363C32.8284 19.4814 32.2161 18.8692 31.4612 18.8692H27.9295C26.5163 18.8692 25.2405 19.464 24.3361 20.4153C23.4317 19.464 22.1558 18.8692 20.7427 18.8692H1.36719C0.612227 18.8692 0 19.4814 0 20.2363V44.8457V50.1796C0 50.9346 0.612227 51.5468 1.36719 51.5468H3.0074V58.2422H1.36719C0.612227 58.2422 0 58.8544 0 59.6094V62.0703C0 66.4427 3.55729 70 7.92969 70H62.0703C66.4427 70 70 66.4427 70 62.0703V59.6094C70 58.8544 69.3878 58.2422 68.6328 58.2422H66.9918V38.1446C66.9918 37.3896 66.3796 36.7774 65.6246 36.7774C64.8696 36.7774 64.2574 37.3896 64.2574 38.1446V58.2422H5.74178V51.5467H47.3047C48.0596 51.5467 48.6719 50.9345 48.6719 50.1795V45.8016C55.1771 45.5332 60.4736 40.5024 61.1587 34.1114H61.6003C64.1123 34.1114 66.1562 32.0676 66.1562 29.5555C66.1562 27.0433 64.1123 24.9995 61.6003 24.9995H61.2203C61.2291 24.9371 61.2343 24.874 61.2343 24.8097V16.3537L67.2656 13.4428V19.6859C67.2656 20.441 67.8779 21.0531 68.6328 21.0531ZM35.0157 31.3771H34.6497C33.6454 31.3771 32.8282 30.5601 32.8282 29.5556C32.8282 28.5512 33.6454 27.734 34.6497 27.734H35.0157V31.3771ZM2.73438 21.6035H20.7426C21.9702 21.6035 22.9688 22.6023 22.9688 23.8297V44.0066C22.299 43.6688 21.5425 43.4785 20.7426 43.4785H2.73438V21.6035ZM67.2656 60.9766V62.0703C67.2656 64.935 64.935 67.2656 62.0703 67.2656H7.92969C5.06502 67.2656 2.73438 64.935 2.73438 62.0703V60.9766H67.2656ZM2.73438 48.8123V46.2129H20.7426C21.9702 46.2129 22.9688 47.2116 22.9688 48.4391C22.9688 48.5687 22.988 48.6936 23.0217 48.8123H2.73438ZM61.2343 27.7339H61.6003C62.6046 27.7339 63.4218 28.5512 63.4218 29.5555C63.4218 30.56 62.6046 31.377 61.6003 31.377H61.2343V27.7339ZM45.9375 48.8126H25.6502V48.8124C25.684 48.6936 25.7031 48.5687 25.7031 48.4392C25.7031 47.2116 26.7019 46.213 27.9293 46.213H45.9375V48.8126ZM58.4996 32.7047C58.4999 38.4255 53.8457 43.0797 48.125 43.0797C42.4043 43.0797 37.7501 38.4255 37.7501 32.7047V26.9051L47.5743 31.2273C47.7497 31.3044 47.9373 31.3431 48.1249 31.3431C48.3124 31.3431 48.5 31.3045 48.6754 31.2273L58.4996 26.9051V32.7047ZM58.4999 23.9178L48.125 28.4821L37.7501 23.9176V17.6734L47.5307 22.3938C47.7184 22.4844 47.9217 22.5297 48.125 22.5297C48.3283 22.5297 48.5316 22.4844 48.7193 22.3938L58.4999 17.6734V23.9178ZM51.9702 12.632H62.6545L48.125 19.6445L30.7627 11.265L48.125 2.88538L62.6545 9.89768H51.9702C51.2153 9.89768 50.603 10.5099 50.603 11.2649C50.603 12.02 51.2153 12.632 51.9702 12.632Z" fill="#5F5F5F"/>
<path d="M69.5993 24.8181C69.3451 24.5639 68.9924 24.4175 68.6328 24.4175C68.2732 24.4175 67.9205 24.5638 67.6662 24.8181C67.4119 25.0723 67.2656 25.4251 67.2656 25.7846C67.2656 26.1442 67.4118 26.4969 67.6662 26.7512C67.9205 27.0054 68.2732 27.1518 68.6328 27.1518C68.9924 27.1518 69.3451 27.0055 69.5993 26.7512C69.8536 26.4969 70 26.1442 70 25.7846C70 25.4251 69.8537 25.0725 69.5993 24.8181Z" fill="#5F5F5F"/>
<path d="M18.3045 34.8542C18.0488 34.5999 17.6975 34.4536 17.3379 34.4536C16.9783 34.4536 16.6256 34.5998 16.3714 34.8542C16.1158 35.1098 15.9707 35.4612 15.9707 35.8208C15.9707 36.1803 16.1158 36.533 16.3714 36.7872C16.6256 37.0429 16.9771 37.1879 17.3379 37.1879C17.6975 37.1879 18.0502 37.0429 18.3045 36.7872C18.5588 36.533 18.7051 36.1816 18.7051 35.8208C18.7051 35.4612 18.5589 35.1085 18.3045 34.8542Z" fill="#005ED0"/>
<path d="M12.168 34.4558H7.79297C7.03801 34.4558 6.42578 35.0681 6.42578 35.8231C6.42578 36.5781 7.03801 37.1903 7.79297 37.1903H12.168C12.9229 37.1903 13.5352 36.5781 13.5352 35.8231C13.5352 35.0681 12.9231 34.4558 12.168 34.4558Z" fill="#005ED0"/>
<path d="M17.3369 27.8928H7.79297C7.03801 27.8928 6.42578 28.505 6.42578 29.26C6.42578 30.0149 7.03801 30.6271 7.79297 30.6271H17.3369C18.0919 30.6271 18.7041 30.0149 18.7041 29.26C18.7041 28.505 18.0919 27.8928 17.3369 27.8928Z" fill="#005ED0"/>
</svg>
